<?xml version="1.0" encoding="UTF-8" standalone="no"?> <svg id="Flat_Gradient" data-name="Flat Gradient" xmlns="http://www.w3.org/2000/svg" xmlns:xlink="http://www.w3.org/1999/xlink" viewBox="0 0 64 64"><defs><style>.cls-1{fill:url(#linear-gradient);}</style><linearGradient id="linear-gradient" x1="4" y1="31.99999" x2="60" y2="31.99999" gradientUnits="userSpaceOnUse"><stop offset="0" stop-color="#ffa68d"/><stop offset="1" stop-color="#fd3a84"/></linearGradient></defs><path class="cls-1" d="M59.26855,27.98151,48.29364,38.67938a2.41338,2.41338,0,0,0-.694,2.13617L50.19043,55.9212a2.41336,2.41336,0,0,1-3.50165,2.54407l-13.56573-7.1319a2.41345,2.41345,0,0,0-2.2461,0l-13.56573,7.1319a2.41336,2.41336,0,0,1-3.50165-2.54407l2.59082-15.10565a2.41338,2.41338,0,0,0-.694-2.13617L4.73145,27.98151A2.41336,2.41336,0,0,1,6.069,23.86505L21.2359,21.66119A2.41329,2.41329,0,0,0,23.053,20.341l6.7829-13.74359a2.41333,2.41333,0,0,1,4.32824,0L40.947,20.341a2.41329,2.41329,0,0,0,1.81708,1.32019L57.931,23.86505A2.41336,2.41336,0,0,1,59.26855,27.98151Z"/></svg>